HIERARCHY
ROOT Hips
{
  OFFSET 279.157 85.6768 304.565
  CHANNELS 6 Xposition Yposition Zposition Zrotation Xrotation Yrotation
  JOINT LeftUpLeg
  {
    OFFSET 8.64259 1.95398 -2.38835
    CHANNELS 3 Zrotation Xrotation Yrotation
    JOINT LeftLeg
    {
      OFFSET 43.7702 0 0
      CHANNELS 3 Zrotation Xrotation Yrotation
      JOINT LeftFoot
      {
        OFFSET 40.6238 0 0
        CHANNELS 3 Zrotation Xrotation Yrotation
        JOINT LeftToeBase
        {
          OFFSET 12.7242 0 0
          CHANNELS 3 Zrotation Xrotation Yrotation
          End Site
          {
            OFFSET 0 0 0
          }
        }
      }
    }
  }
  JOINT RightUpLeg
  {
    OFFSET -8.2249 1.95398 -2.59336
    CHANNELS 3 Zrotation Xrotation Yrotation
    JOINT RightLeg
    {
      OFFSET 43.5653 0 0
      CHANNELS 3 Zrotation Xrotation Yrotation
      JOINT RightFoot
      {
        OFFSET 40.6238 0 0
        CHANNELS 3 Zrotation Xrotation Yrotation
        JOINT RightToeBase
        {
          OFFSET 12.7242 0 0
          CHANNELS 3 Zrotation Xrotation Yrotation
          End Site
          {
            OFFSET 0 0 0
          }
        }
      }
    }
  }
  JOINT Spine
  {
    OFFSET 0.165834 0.87714 6.61349
    CHANNELS 3 Zrotation Xrotation Yrotation
    JOINT Spine1
    {
      OFFSET 7.38963 1.71661e-005 0
      CHANNELS 3 Zrotation Xrotation Yrotation
      JOINT Spine2
      {
        OFFSET 11.9445 1.14441e-005 0
        CHANNELS 3 Zrotation Xrotation Yrotation
        JOINT Spine3
        {
          OFFSET 14.7254 4.19617e-005 0
          CHANNELS 3 Zrotation Xrotation Yrotation
          JOINT Spine4
          {
            OFFSET 10.9679 0 0
            CHANNELS 3 Zrotation Xrotation Yrotation
            JOINT RightShoulder
            {
              OFFSET 2.46616 -1.6653 3.69651
              CHANNELS 3 Zrotation Xrotation Yrotation
              JOINT RightArm
              {
                OFFSET 13.0012 0 0
                CHANNELS 3 Zrotation Xrotation Yrotation
                JOINT RightForeArm
                {
                  OFFSET 28.7848 1.52588e-005 0
                  CHANNELS 3 Zrotation Xrotation Yrotation
                  JOINT RightHand
                  {
                    OFFSET 26.5688 1.52588e-005 0
                    CHANNELS 3 Zrotation Xrotation Yrotation
                    End Site
                    {
                      OFFSET 0 0 0
                    }
                  }
                }
              }
            }
            JOINT LeftShoulder
            {
              OFFSET 2.38034 -1.29275 -3.7523
              CHANNELS 3 Zrotation Xrotation Yrotation
              JOINT LeftArm
              {
                OFFSET 16.3182 6.10351e-005 0
                CHANNELS 3 Zrotation Xrotation Yrotation
                JOINT LeftForeArm
                {
                  OFFSET 27.0901 0 0
                  CHANNELS 3 Zrotation Xrotation Yrotation
                  JOINT LeftHand
                  {
                    OFFSET 24.5451 1.52588e-005 0
                    CHANNELS 3 Zrotation Xrotation Yrotation
                    End Site
                    {
                      OFFSET 0 0 0
                    }
                  }
                }
              }
            }
            JOINT Neck
            {
              OFFSET 5.0226 -0.0266342 0
              CHANNELS 3 Zrotation Xrotation Yrotation
              JOINT Head
              {
                OFFSET 6.69364 2.86102e-005 0
                CHANNELS 3 Zrotation Xrotation Yrotation
                End Site
                {
                  OFFSET 0 0 0
                }
              }
            }
          }
        }
      }
    }
  }
}
MOTION
Frames:	18
Frame Time:	0.0416667
37.5589 103.053 -276.513 -173.938 -83.7637 -176.962 -174.114 -5.95808 90.4361 -7.482 5.57627 0.576829 66.0836 3.82881 -4.76125 24.119 -6.30793 12.6985 173.163 -2.66161 87.4927 -13.586 -6.92827 -0.812537 68.5185 -3.98112 2.99247 25.7323 1.71688 -4.11107 -0.0286631 7.61579 -90.0569 11.6423 -0.0836155 -0.104628 -0.0287029 -0.0881401 -0.100847 -22.5638 -0.0483162 -0.124921 -2.55119 -0.04831 -0.124925 89.8302 -29.4797 -107.298 43.4269 -8.30597 -4.10758 0.782008 -36.5816 -16.1213 -33.5833 -2.80697 -2.00707 -89.7756 -56.1558 80.2889 -26.3256 3.90647 -15.4273 3.09651 20.8711 -1.87709 -3.4209 -0.0166952 -12.4252 2.78986 -0.989812 -4.90087 1.0385 0.192502 13.7054 
37.1071 103.133 -276.389 -153.669 -83.5742 -155.731 -173.998 -5.16378 91.2456 -8.70883 2.00401 1.08607 67.898 4.65353 -5.49568 20.6992 -7.90925 10.437 173.573 -1.83573 88.5789 -14.6639 -8.71809 -0.590135 66.7677 -3.47031 0.43352 27.6935 0.147307 1.51642 0.148681 7.52277 -90.0304 11.8287 0.281458 -0.0902247 0.157742 0.277213 -0.102536 -22.3777 0.295558 -0.00146927 -2.36501 0.295566 -0.00146456 88.291 -31.2645 -109.595 42.73 -8.85302 -3.20476 3.1153 -32.9813 -16.1214 -32.2471 -2.89807 -0.81664 -89.2688 -54.6226 80.7179 -23.1119 8.24486 -11.8732 1.22135 14.1158 -4.68086 -2.72271 -0.0649856 -12.3874 4.11235 -0.218503 1.89221 -6.19179 -0.574492 -0.767542 
35.8622 102.991 -275.906 -148.377 -83.03 -150.809 -173.77 -5.85165 92.3093 -8.39593 1.38356 1.1827 67.5831 5.74505 -4.93434 21.6065 -7.27696 10.3788 173.618 -0.911446 88.6826 -17.4159 -8.63497 -0.612312 69.8323 -4.71123 0.177554 23.4495 1.21312 3.50707 0.282113 7.57794 -89.9784 11.7181 0.571313 -0.0168108 0.0472374 0.570015 -0.0419545 -22.4889 0.549942 0.155674 -2.47624 0.549941 0.155662 88.1744 -31.5375 -109.704 42.8807 -9.93106 -2.79071 3.26799 -27.1781 -15.2168 -23.8791 -0.405664 -9.91891 -89.4979 -54.6891 80.404 -20.3931 10.8555 -9.49744 0.232772 9.95168 -7.88376 -2.79176 -0.0568936 -12.4225 3.30141 -0.195693 1.98488 -5.45345 -0.51921 -0.209962 
34.0567 102.027 -276.016 -153.394 -83.6066 -155.239 -173.753 1.32651 91.105 -19.621 1.81053 1.37562 69.4975 7.46411 -4.01022 26.4595 -5.00841 13.9121 173.332 0.762924 90.2455 -21.5527 -8.8987 0.775843 71.7859 -5.55079 -0.626745 24.4797 1.27199 1.19761 0.325991 7.67816 -90.0495 11.5177 0.625481 -0.162034 -0.153126 0.617748 -0.18941 -22.6894 0.645256 0.0334452 -2.67681 0.645264 0.0334504 88.3317 -30.3121 -109.917 43.5856 -10.2203 -2.51299 3.57236 -27.9898 -15.5786 -24.7945 -0.908163 -7.72038 -89.0832 -54.2576 80.9153 -19.8635 10.1098 -9.20974 0.947916 8.76571 -8.79253 -2.38226 -0.0899638 -10.797 4.47941 0.00831773 3.33763 -5.49122 -0.557699 -0.954483 
32.5665 101.488 -276.256 -175.155 -83.5197 -175.857 -175.456 10.5282 93.6405 -37.2838 3.82187 3.05221 68.6332 6.39259 -2.08662 22.8297 -7.43457 13.3434 173.201 0.504685 91.6314 -22.6575 -6.79416 2.11103 72.3121 -5.44662 -0.224303 24.7609 0.88753 2.96691 0.349966 7.91199 -90.2941 11.0512 0.560325 -0.63911 -0.619808 0.53165 -0.66316 -23.1552 0.726488 -0.441163 -3.1426 0.726493 -0.441172 88.3541 -29.2722 -110.32 43.2615 -9.89922 -2.60837 3.45006 -25.511 -13.7078 -25.1998 -0.739124 -7.87083 -89.2775 -56.1575 80.9861 -17.8769 9.32844 -8.0016 2.15361 8.50587 -12.81 -1.37895 -0.153094 -11.5765 5.0123 -0.319571 5.90478 -4.61354 -1.33049 -2.76439 
31.4152 101.772 -275.305 168.386 -83.0395 167.175 -177.261 16.4121 91.6474 -44.7562 7.73647 3.49642 66.6086 5.49127 1.36536 19.7319 -8.48558 10.1926 173.335 -1.4937 91.8606 -21.352 -2.77156 2.10841 74.4705 -5.7309 1.19954 21.2137 2.18102 2.1572 0.52282 8.05182 -90.3154 10.7748 0.895561 -0.710155 -0.896031 0.863435 -0.748894 -23.433 1.06759 -0.408164 -3.42035 1.06759 -0.408163 87.9396 -29.5559 -111.017 41.9206 -9.86038 -1.99864 4.15049 -23.9831 -12.2205 -26.4286 -0.601224 -8.06063 -89.1342 -56.8828 81.3135 -17.9064 8.43935 -6.3664 3.45402 9.14452 -15.6312 -0.828699 -0.178654 -10.8675 4.27689 -1.4869 5.29088 -3.6692 -2.35181 -3.28755 
30.8616 101.795 -273.588 168.847 -83.3316 165.511 -177.509 17.7582 87.8638 -37.9545 10.0414 1.63548 66.6548 4.61448 -2.43063 19.0704 -8.94378 10.2182 172.648 -2.49253 90.0712 -20.2544 -3.85788 1.70159 73.9376 -5.48501 1.09391 25.8788 0.294768 4.62561 0.864436 8.08177 -90.0424 10.7123 1.70196 -0.240244 -0.957597 1.68974 -0.314953 -23.5016 1.69545 0.282524 -3.4889 1.69545 0.282516 87.9856 -30.3355 -110.581 41.9558 -9.96907 -2.74352 5.34968 -24.9878 -10.9298 -26.3015 -0.888933 -6.89434 -89.4147 -55.8591 80.739 -18.9364 7.41416 -4.47179 3.40939 8.42934 -14.2312 -1.25173 -0.154652 -10.9501 3.89117 -2.72165 3.38988 -4.08194 -3.20933 -3.08817 
30.6573 101.597 -271.233 166.395 -83.7678 161.871 -178.187 16.3006 84.5924 -21.9246 10.6936 -0.0904289 64.7835 4.27198 -0.649181 16.634 -9.00475 6.22186 172.697 -3.82782 89.3616 -19.5998 -3.03721 1.04113 74.5821 -5.77533 1.18161 28.0011 -0.468237 5.42068 0.925609 8.13598 -89.981 10.604 1.85228 -0.12936 -1.06566 1.84479 -0.210791 -23.611 1.80549 0.433495 -3.59839 1.80549 0.433491 87.886 -29.4197 -111.18 42.1187 -10.1855 -4.10914 4.25055 -27.171 -12.6762 -25.9631 -0.900064 -7.47936 -89.5529 -57.2958 80.8089 -18.5775 7.4416 -1.44338 2.58781 6.90689 -13.0382 -2.15636 -0.106659 -10.178 4.26694 -2.57251 5.63211 -3.19284 -3.48186 -3.866 
30.642 101.197 -267.849 166.242 -83.3567 161.945 -178.906 14.0165 82.9943 -8.18064 7.62212 -1.48707 62.9765 3.52775 -0.732819 14.7799 -10.0144 5.77368 173.016 -7.04866 89.7949 -18.5699 -2.22807 0.65181 75.2481 -6.25841 1.15409 29.9605 -0.990985 5.03835 0.930179 8.19961 -90.0547 10.4779 1.82784 -0.270621 -1.19184 1.81416 -0.350837 -23.7372 1.82463 0.291416 -3.72454 1.82464 0.291417 87.7221 -29.6159 -111.414 41.0854 -10.2559 -5.45205 2.51287 -27.4492 -15.5354 -26.12 -0.676226 -8.73862 -89.8107 -58.2955 80.6352 -19.3258 8.39714 1.35703 1.17331 5.48165 -10.9076 -0.698357 -0.136025 -7.48316 3.66547 -2.27602 6.26118 -2.43857 -3.2958 -3.56905 
30.5979 100.323 -263.494 -176.198 -84.5238 179.603 -178.467 16.3264 82.0952 -7.64301 4.41432 -2.91376 63.22 3.06242 -0.90194 14.3865 -10.072 5.31415 172.777 -8.17428 89.289 -20.2655 -2.73104 0.266003 79.6498 -8.14528 2.54473 27.6595 -0.264379 4.68358 1.0964 8.09176 -90.0645 10.6946 2.15378 -0.324918 -0.974616 2.1374 -0.419439 -23.5239 2.1518 0.337709 -3.51125 2.15181 0.337715 87.5632 -29.6265 -111.721 40.389 -10.4354 -7.18535 3.18692 -27.472 -14.4004 -26.5355 -0.544953 -9.37827 -89.7284 -59.5425 80.9706 -20.4342 7.27372 4.03469 1.70813 7.07408 -10.565 -3.78646 -0.0430497 -8.34677 3.34311 -1.85031 6.47103 -2.49295 -2.89216 -4.12761 
30.4767 99.5159 -257.497 -138.712 -83.2729 -142.899 -178 17.0207 82.1704 -11.9222 1.75281 -2.74953 59.262 0.0772534 -1.56846 12.0001 -11.2432 4.5048 172.733 -12.4957 88.5941 -18.2894 -5.20628 -0.991576 80.4717 -9.62176 1.83662 29.2331 -0.615279 3.53216 1.39457 7.99013 -89.9693 10.9002 2.79073 -0.203997 -0.767837 2.77904 -0.326723 -23.3262 2.72294 0.644808 -3.31352 2.72294 0.644803 87.6593 -29.2539 -111.703 41.1493 -11.2576 -7.93761 3.66086 -27.829 -13.7801 -26.1668 -0.676168 -8.84777 -89.3107 -60.2187 81.6489 -21.0336 6.89747 6.95866 1.69582 4.91591 -11.6223 -3.08749 -0.0652457 -8.41615 3.88979 -1.50077 5.90011 -3.32028 -2.44577 -4.42271 
30.412 99.7117 -250.231 -122.472 -81.0554 -128.705 -177.215 17.5606 79.903 -20.8381 0.296472 -3.02906 61.8721 1.00521 -0.621365 10.4174 -12.3353 4.69308 170.279 -14.721 84.3258 -19.7766 -9.84499 -2.03941 75.635 -8.16201 0.115595 37.1348 -3.06712 5.56176 1.43291 7.87563 -89.5813 11.1191 3.04658 0.537523 -0.548304 3.06729 0.402783 -23.107 2.74408 1.42892 -3.09437 2.74409 1.42891 86.9823 -29.6297 -112.856 42.6488 -11.0743 -6.87264 3.4361 -28.0938 -13.8236 -27.0081 -0.982056 -7.30324 -89.1875 -60.9063 81.9288 -18.7524 6.64729 6.05592 1.15816 4.46093 -9.04842 -2.91049 -0.0723548 -8.22651 4.01005 -0.912232 5.61209 -3.01483 -1.83031 -4.76465 
30.221 100.353 -242.903 -122.333 -79.2873 -128.898 -176.055 12.8707 79.4921 -24.1172 -0.552016 -3.91224 67.3812 4.29707 -0.911149 11.8151 -11.702 5.27132 168.522 -10.0076 80.9755 -33.3455 -17.0781 -2.48477 64.5117 -2.41357 -0.259264 41.8075 -4.44244 8.37763 1.38627 7.8021 -89.4533 11.2615 3.01331 0.79009 -0.406157 3.04516 0.656585 -22.9621 2.63649 1.6597 -2.94941 2.63648 1.65969 87.7251 -29.0594 -111.661 44.2276 -11.9672 -4.96333 3.60527 -28.7931 -13.6616 -28.0989 -0.96806 -7.51841 -88.7549 -59.5487 82.2868 -17.6953 7.07197 1.37151 0.585471 4.02573 -5.64958 -3.48854 -0.0524415 -8.27811 2.91252 -0.535371 4.27891 -4.27811 -1.15573 -3.82711 
30.0437 100.691 -237.272 -126.313 -77.4686 -131.769 -175.661 7.79818 80.1459 -25.4549 -0.869112 -3.84184 71.2409 6.36781 -0.694786 13.3369 -10.9307 5.74652 170.872 0.721731 80.9476 -54.4981 -21.1701 -3.96394 54.7367 2.96486 1.64433 24.6166 0.404094 6.00324 1.09066 7.97247 -89.6 10.9239 2.35653 0.573445 -0.74504 2.37948 0.469109 -23.2932 2.07519 1.25542 -3.28056 2.0752 1.25542 88.2211 -28.3391 -111.002 43.0464 -11.0671 -3.9357 1.64917 -27.3179 -16.9228 -25.4363 -0.694154 -8.64393 -89.0767 -59.4848 81.8394 -15.8391 7.16782 -2.99739 1.54539 4.6661 -9.76223 -2.06393 -0.101645 -8.15859 3.33852 0.762571 5.17116 -3.39386 -0.0650699 -4.2498 
29.5057 101.152 -232.562 -131.552 -76.5557 -135.529 -175.724 2.32033 81.2026 -24.1224 -0.749034 -2.99955 73.5995 7.75124 -1.10722 14.6101 -10.5226 6.71862 175.132 9.29036 84.2543 -62.0053 -18.7919 -4.99992 60.6405 -0.642381 -0.774866 24.0773 0.915165 4.05323 0.788335 8.18697 -89.6241 10.4952 1.74286 0.591802 -1.17469 1.76721 0.514498 -23.716 1.48442 1.08832 -3.70333 1.48442 1.08833 87.6654 -30.8105 -110.998 40.3849 -8.98495 -4.2551 0.840267 -23.2078 -17.7247 -25.0898 -0.351556 -9.28474 -89.6729 -56.7004 80.5328 -13.8215 7.38134 -13.0558 1.38807 5.57618 -7.84323 -0.855228 -0.14614 -8.45399 1.94867 1.18705 1.36681 -2.05149 0.952305 -2.22602 
28.8709 101.78 -228.011 -140.1 -78.044 -140.9 -175.484 -1.65291 84.1136 -22.7907 1.12256 -1.1891 75.4623 8.4379 -2.27253 17.1457 -9.95576 9.45607 178.173 13.0171 89.3705 -48.7247 -10.2277 -4.24052 67.9874 -4.79205 -0.41037 22.6415 1.50539 3.27158 0.343847 8.21492 -89.9457 10.4459 0.709928 0.045683 -1.22487 0.711249 0.0143994 -23.7614 0.663376 0.256943 -3.74875 0.663378 0.256947 87.6112 -31.114 -110.966 40.0189 -7.51547 -3.01488 0.0964518 -27.6006 -18.5161 -27.5468 -0.684878 -8.64503 -89.8089 -55.1396 80.0498 -12.8377 7.38461 -21.7495 1.79945 5.99166 -8.14517 -3.04033 -0.0512866 -9.82117 -0.175044 1.63956 -0.800623 -1.9241 1.72929 -0.849052 
27.9736 101.651 -222.823 -145.181 -79.7649 -144.07 -175.177 -4.80527 85.9962 -21.7465 2.30442 0.173283 78.7934 10.7456 -1.71705 14.2049 -10.5865 6.25153 179.283 14.1814 92.4256 -25.8021 -7.65574 -2.49786 63.8463 -2.94838 -0.846592 22.4422 1.49194 3.67476 0.049425 8.24595 -90.1464 10.3819 0.0314568 -0.293584 -1.28909 0.0185117 -0.294694 -23.824 0.118239 -0.270551 -3.81137 0.118229 -0.270566 87.1178 -32.2438 -111.416 39.2363 -6.88049 -0.911349 -0.666789 -26.5908 -19.9291 -25.7105 -0.280384 -10.6879 -89.6998 -52.7569 79.7396 -13.5869 9.43206 -27.1207 2.23009 5.26561 -13.492 0.71601 -0.247101 -10.1728 0.978247 1.61648 -3.73815 -2.53029 2.14476 0.86226 
27.046 100.538 -216.264 -147.438 -80.918 -145.824 -173.95 -9.23132 87.5697 -20.5917 4.19641 0.121386 82.083 12.8586 -2.06191 18.2204 -9.13611 9.20766 177.724 13.6073 94.1041 -6.43572 -11.1202 0.631928 61.5898 -1.69317 -0.0522489 26.3961 0.379268 2.91403 -0.0959358 8.22123 -90.2122 10.4307 -0.288309 -0.396256 -1.24031 -0.305473 -0.383178 -23.775 -0.155899 -0.464582 -3.7624 -0.15589 -0.464577 87.1702 -33.4685 -110.796 39.5083 -5.2276 0.92403 0.224006 -27.4209 -18.9896 -25.7121 -0.745608 -8.47496 -90.2547 -52.8536 78.955 -15.0419 8.8367 -30.0258 4.91366 10.5085 -17.6155 1.18317 -0.316304 -11.6303 1.94507 1.04883 -5.50385 -2.89704 1.88409 1.2072 
